# xmcd
# 
# Track frame offsets:
#     150
#     13955
#     27212
#     39772
#     54287
#     66872
#     78272
#     90067
#     103240
#     113667
#     124232
#     139155
#     176842
#     192402
# 
# Disc length: 2718
# 
# Revision: 1
# Processed by: cddbd v1.5.2PL0 Copyright (c) Steve Scherf et al.
# Submitted via: fre:ac v1.0.31
# 
DISCID=b20a9c0e
DTITLE=Roots of Rhythm - Paying The Cost
DYEAR=2001
DGENRE=R&B
TTITLE0=The Contours/First I Look at the Purse
TTITLE1=Clyde McPhatter and the Drifters/Money Honey
TTITLE2=James Brown/It's a Man's Man's Man's world
TTITLE3=Laura Lee/Women's Love Rights
TTITLE4=Chuck Willis/I Rule My House
TTITLE5=Lloyd Price/Lawdy Miss Clawdy
TTITLE6=Little Junior Parker/Driving Wheel
TTITLE7=Chuck Berry/Too Much Monkey Business
TTITLE8=Fats Domino/Blue Monday
TTITLE9=Sonny Boy Williamson/Fattening Frogs for Snakes
TTITLE10=Duke Ellington/Five O'Clock Whistle
TTITLE11=Cannonball Adderley/Work Song
TTITLE12=Johnnie Taylor/Cheaper to Keep Her
TTITLE13=B.B. King/Paying the Cost to Be the Boss
EXTD=
EXTT0=
EXTT1=
EXTT2=
EXTT3=
EXTT4=
EXTT5=
EXTT6=
EXTT7=
EXTT8=
EXTT9=
EXTT10=
EXTT11=
EXTT12=
EXTT13=
PLAYORDER=
